M48
METRIC,LZ,000.000
;FILE_FORMAT=3:3
;TYPE=PLATED
;Layer: PTH_Through
;EasyEDA v6.5.54, 2026-10-07 21:45:40
;91ca81187f6f41d693423a00310a333b,a937c8900e4147808b0d97df3b2fa74b,10
;Gerber Generator version 0.2
;Holesize 1 = 0.701 mm
T01C0.701
;Holesize 2 = 0.800 mm
T02C0.800
;Holesize 3 = 0.900 mm
T03C0.900
;Holesize 4 = 0.901 mm
T04C0.901
;Holesize 5 = 0.915 mm
T05C0.915
;Holesize 6 = 1.051 mm
T06C1.051
%
G05
G90
T01
X101589Y005080
X100087Y005080
X095758Y016129
X094488Y016129
X093218Y016129
T02
X077561Y022860
X085761Y022860
T03
X085471Y007493
X077851Y007493
T04
X098257Y026416
X096307Y026416
T05
X026416Y049022
X026416Y046482
X026416Y043942
X026416Y041402
X026416Y038862
X026416Y036322
X026416Y033782
X026416Y031242
X026416Y028702
X026416Y026162
X026416Y023622
X026416Y021082
X026416Y018542
X026416Y016002
X026416Y013462
X051816Y013462
X051816Y016002
X051816Y018542
X051816Y021082
X051816Y023622
X051816Y026162
X051816Y028702
X051816Y031242
X051816Y033782
X051816Y036322
X051816Y038862
X051816Y041402
X051816Y043942
X051816Y046482
X051816Y049022
T06
X082423Y051940G85X082423Y051946
X082423Y049400G85X082423Y049406
X082423Y046860G85X082423Y046866
X082423Y044320G85X082423Y044326
X082423Y041780G85X082423Y041786
X082423Y039240G85X082423Y039246
X082423Y036700G85X082423Y036706
X082423Y034160G85X082423Y034166
M30
