G04 Layer: TopSilkscreenLayer*
G04 EasyEDA v6.5.54, 2026-10-07 21:45:40*
G04 91ca81187f6f41d693423a00310a333b,a937c8900e4147808b0d97df3b2fa74b,10*
G04 Gerber Generator version 0.2*
G04 Scale: 100 percent, Rotated: No, Reflected: No *
G04 Dimensions in millimeters *
G04 leading zeros omitted , absolute positions ,4 integer and 5 decimal *
%FSLAX45Y45*%
%MOMM*%

%ADD10C,0.1524*%
%ADD11C,0.1016*%
%ADD12C,0.2030*%
%ADD13C,0.0800*%
%ADD14C,0.2540*%
%ADD15C,0.0116*%

%LPD*%
D10*
X10155133Y769711D02*
G01*
X10149799Y780125D01*
X10139385Y790539D01*
X10129225Y795619D01*
X10108397Y795619D01*
X10097983Y790539D01*
X10087569Y780125D01*
X10082235Y769711D01*
X10077155Y753963D01*
X10077155Y728055D01*
X10082235Y712561D01*
X10087569Y702147D01*
X10097983Y691733D01*
X10108397Y686653D01*
X10129225Y686653D01*
X10139385Y691733D01*
X10149799Y702147D01*
X10155133Y712561D01*
X10189423Y774791D02*
G01*
X10199837Y780125D01*
X10215331Y795619D01*
X10215331Y686653D01*
X8191500Y2018284D02*
G01*
X8191500Y2127250D01*
X8191500Y2018284D02*
G01*
X8155177Y2018284D01*
X8139429Y2023363D01*
X8129270Y2033778D01*
X8123936Y2044192D01*
X8118856Y2059939D01*
X8118856Y2085847D01*
X8123936Y2101342D01*
X8129270Y2111755D01*
X8139429Y2122170D01*
X8155177Y2127250D01*
X8191500Y2127250D01*
X8084565Y2039112D02*
G01*
X8074152Y2033778D01*
X8058404Y2018284D01*
X8058404Y2127250D01*
X8928100Y5487415D02*
G01*
X8928100Y5378450D01*
X8928100Y5487415D02*
G01*
X8969756Y5378450D01*
X9011158Y5487415D02*
G01*
X8969756Y5378450D01*
X9011158Y5487415D02*
G01*
X9011158Y5378450D01*
X9045447Y5466587D02*
G01*
X9055861Y5471921D01*
X9071609Y5487415D01*
X9071609Y5378450D01*
D11*
X8385047Y5310378D02*
G01*
X8396731Y5316220D01*
X8414004Y5333492D01*
X8414004Y5212334D01*
D10*
X3886200Y5627115D02*
G01*
X3886200Y5518150D01*
X3886200Y5627115D02*
G01*
X3927856Y5518150D01*
X3969258Y5627115D02*
G01*
X3927856Y5518150D01*
X3969258Y5627115D02*
G01*
X3969258Y5518150D01*
X4081525Y5601207D02*
G01*
X4076445Y5611621D01*
X4066031Y5622036D01*
X4055618Y5627115D01*
X4034790Y5627115D01*
X4024375Y5622036D01*
X4013961Y5611621D01*
X4008881Y5601207D01*
X4003547Y5585460D01*
X4003547Y5559552D01*
X4008881Y5544057D01*
X4013961Y5533644D01*
X4024375Y5523229D01*
X4034790Y5518150D01*
X4055618Y5518150D01*
X4066031Y5523229D01*
X4076445Y5533644D01*
X4081525Y5544057D01*
X4115815Y5627115D02*
G01*
X4115815Y5549137D01*
X4121150Y5533644D01*
X4131309Y5523229D01*
X4147058Y5518150D01*
X4157472Y5518150D01*
X4172965Y5523229D01*
X4183379Y5533644D01*
X4188459Y5549137D01*
X4188459Y5627115D01*
X4222750Y5606287D02*
G01*
X4233163Y5611621D01*
X4248911Y5627115D01*
X4248911Y5518150D01*
D12*
X2997200Y2577084D02*
G01*
X2997200Y2433828D01*
X2997200Y2577084D02*
G01*
X3085845Y2577084D01*
X2997200Y2508757D02*
G01*
X3051809Y2508757D01*
X2997200Y2433828D02*
G01*
X3085845Y2433828D01*
X3226308Y2556510D02*
G01*
X3212591Y2570226D01*
X3192272Y2577084D01*
X3164840Y2577084D01*
X3144520Y2570226D01*
X3130804Y2556510D01*
X3130804Y2543047D01*
X3137661Y2529331D01*
X3144520Y2522473D01*
X3157981Y2515615D01*
X3199129Y2502154D01*
X3212591Y2495295D01*
X3219450Y2488437D01*
X3226308Y2474721D01*
X3226308Y2454402D01*
X3212591Y2440686D01*
X3192272Y2433828D01*
X3164840Y2433828D01*
X3144520Y2440686D01*
X3130804Y2454402D01*
X3271265Y2577084D02*
G01*
X3271265Y2433828D01*
X3271265Y2577084D02*
G01*
X3332734Y2577084D01*
X3353054Y2570226D01*
X3359911Y2563368D01*
X3366770Y2549905D01*
X3366770Y2529331D01*
X3359911Y2515615D01*
X3353054Y2508757D01*
X3332734Y2502154D01*
X3271265Y2502154D01*
X3425443Y2577084D02*
G01*
X3500374Y2577084D01*
X3459479Y2522473D01*
X3479800Y2522473D01*
X3493515Y2515615D01*
X3500374Y2508757D01*
X3507231Y2488437D01*
X3507231Y2474721D01*
X3500374Y2454402D01*
X3486658Y2440686D01*
X3466338Y2433828D01*
X3445763Y2433828D01*
X3425443Y2440686D01*
X3418586Y2447544D01*
X3411727Y2461260D01*
X3559047Y2543047D02*
G01*
X3559047Y2549905D01*
X3565906Y2563368D01*
X3572763Y2570226D01*
X3586225Y2577084D01*
X3613658Y2577084D01*
X3627120Y2570226D01*
X3633977Y2563368D01*
X3640836Y2549905D01*
X3640836Y2536189D01*
X3633977Y2522473D01*
X3620261Y2502154D01*
X3552190Y2433828D01*
X3647693Y2433828D01*
X3692652Y2495295D02*
G01*
X3815334Y2495295D01*
X3860291Y2577084D02*
G01*
X3860291Y2433828D01*
X3860291Y2577084D02*
G01*
X3908043Y2577084D01*
X3928618Y2570226D01*
X3942079Y2556510D01*
X3948938Y2543047D01*
X3955795Y2522473D01*
X3955795Y2488437D01*
X3948938Y2467863D01*
X3942079Y2454402D01*
X3928618Y2440686D01*
X3908043Y2433828D01*
X3860291Y2433828D01*
X4000754Y2488437D02*
G01*
X4082541Y2488437D01*
X4082541Y2502154D01*
X4075938Y2515615D01*
X4069079Y2522473D01*
X4055363Y2529331D01*
X4035043Y2529331D01*
X4021327Y2522473D01*
X4007611Y2508757D01*
X4000754Y2488437D01*
X4000754Y2474721D01*
X4007611Y2454402D01*
X4021327Y2440686D01*
X4035043Y2433828D01*
X4055363Y2433828D01*
X4069079Y2440686D01*
X4082541Y2454402D01*
X4127754Y2529331D02*
G01*
X4168647Y2433828D01*
X4209541Y2529331D02*
G01*
X4168647Y2433828D01*
X4254500Y2577084D02*
G01*
X4254500Y2433828D01*
X4350004Y2577084D02*
G01*
X4254500Y2481579D01*
X4288536Y2515615D02*
G01*
X4350004Y2433828D01*
X4394961Y2577084D02*
G01*
X4401820Y2570226D01*
X4408677Y2577084D01*
X4401820Y2583942D01*
X4394961Y2577084D01*
X4401820Y2529331D02*
G01*
X4401820Y2433828D01*
X4473956Y2577084D02*
G01*
X4473956Y2461260D01*
X4480813Y2440686D01*
X4494529Y2433828D01*
X4507991Y2433828D01*
X4453636Y2529331D02*
G01*
X4501388Y2529331D01*
X4553204Y2495295D02*
G01*
X4675886Y2495295D01*
X4720843Y2577084D02*
G01*
X4775454Y2433828D01*
X4829809Y2577084D02*
G01*
X4775454Y2433828D01*
X4875022Y2549905D02*
G01*
X4888484Y2556510D01*
X4909058Y2577084D01*
X4909058Y2433828D01*
D10*
X9454641Y2045715D02*
G01*
X9444227Y2040636D01*
X9433813Y2030221D01*
X9428479Y2019807D01*
X9423400Y2004060D01*
X9423400Y1978152D01*
X9428479Y1962657D01*
X9433813Y1952244D01*
X9444227Y1941829D01*
X9454641Y1936750D01*
X9475470Y1936750D01*
X9485629Y1941829D01*
X9496043Y1952244D01*
X9501377Y1962657D01*
X9506458Y1978152D01*
X9506458Y2004060D01*
X9501377Y2019807D01*
X9496043Y2030221D01*
X9485629Y2040636D01*
X9475470Y2045715D01*
X9454641Y2045715D01*
X9470136Y1957323D02*
G01*
X9501377Y1926336D01*
X9540747Y2024887D02*
G01*
X9551161Y2030221D01*
X9566909Y2045715D01*
X9566909Y1936750D01*
X8166100Y506984D02*
G01*
X8166100Y615950D01*
X8166100Y506984D02*
G01*
X8119363Y506984D01*
X8103870Y512063D01*
X8098536Y517397D01*
X8093456Y527812D01*
X8093456Y538226D01*
X8098536Y548639D01*
X8103870Y553720D01*
X8119363Y558800D01*
X8166100Y558800D01*
X8129777Y558800D02*
G01*
X8093456Y615950D01*
X8059165Y527812D02*
G01*
X8048752Y522478D01*
X8033004Y506984D01*
X8033004Y615950D01*
X9675294Y3163318D02*
G01*
X9675294Y3085340D01*
X9680374Y3069846D01*
X9690788Y3059432D01*
X9706536Y3054352D01*
X9716950Y3054352D01*
X9732444Y3059432D01*
X9742858Y3069846D01*
X9747938Y3085340D01*
X9747938Y3163318D01*
X9782228Y3142490D02*
G01*
X9792642Y3147824D01*
X9808390Y3163318D01*
X9808390Y3054352D01*
G36*
X10088880Y658012D02*
G01*
X10088829Y357987D01*
X10099954Y359206D01*
X10110927Y361188D01*
X10121696Y363982D01*
X10132263Y367588D01*
X10142524Y371957D01*
X10152430Y377088D01*
X10161930Y382930D01*
X10170972Y389432D01*
X10179507Y396595D01*
X10187482Y404418D01*
X10194848Y412750D01*
X10201554Y421640D01*
X10207650Y430987D01*
X10212984Y440791D01*
X10217607Y450951D01*
X10221468Y461416D01*
X10224516Y472135D01*
X10226751Y483006D01*
X10228224Y494080D01*
X10228834Y505206D01*
X10228630Y516382D01*
X10227564Y527456D01*
X10225735Y538480D01*
X10223093Y549300D01*
X10219639Y559866D01*
X10215372Y570179D01*
X10210393Y580186D01*
X10204704Y589737D01*
X10198303Y598881D01*
X10191242Y607517D01*
X10183520Y615594D01*
X10175290Y623062D01*
X10166502Y629920D01*
X10157206Y636117D01*
X10147503Y641604D01*
X10137444Y646328D01*
X10127030Y650341D01*
X10116312Y653542D01*
X10105440Y655929D01*
X10099954Y656844D01*
G37*
G36*
X9954717Y2895600D02*
G01*
X9954717Y2387600D01*
X9966452Y2399944D01*
X9977577Y2412847D01*
X9988042Y2426258D01*
X9997846Y2440178D01*
X10006939Y2454554D01*
X10011257Y2461920D01*
X10019233Y2476906D01*
X10026548Y2492298D01*
X10033050Y2508046D01*
X10038791Y2524048D01*
X10041382Y2532176D01*
X10045903Y2548585D01*
X10047884Y2556865D01*
X10051186Y2573578D01*
X10053675Y2590444D01*
X10054640Y2598877D01*
X10055860Y2615844D01*
X10056317Y2632862D01*
X10056215Y2658821D01*
X10055352Y2675839D01*
X10054640Y2684322D01*
X10052558Y2701188D01*
X10049611Y2718003D01*
X10047884Y2726334D01*
X10043718Y2742844D01*
X10041382Y2751023D01*
X10035997Y2767177D01*
X10029901Y2783078D01*
X10022992Y2798622D01*
X10015321Y2813812D01*
X10011257Y2821279D01*
X10002469Y2835910D01*
X9993020Y2850032D01*
X9982860Y2863748D01*
X9972090Y2876905D01*
X9960660Y2889504D01*
G37*
D13*
X10018798Y602998D02*
G01*
X10068798Y602998D01*
X10043800Y577999D02*
G01*
X10043800Y627999D01*
D14*
X8386099Y2176000D02*
G01*
X7946100Y2176000D01*
X8386099Y2395999D02*
G01*
X7946100Y2395999D01*
X8386099Y2176000D02*
G01*
X8386099Y2395999D01*
X7946100Y2176000D02*
G01*
X7946100Y2395999D01*
X8292160Y2176000D02*
G01*
X8292160Y2395999D01*
X9258300Y3289300D02*
G01*
X8115300Y3289300D01*
X8115300Y5321300D01*
X9258300Y5321300D01*
X2463800Y5435600D02*
G01*
X5346700Y5435600D01*
X5346700Y495300D01*
X2463800Y495300D01*
X2463800Y5435600D01*
X2984500Y5486400D02*
G01*
X4851400Y5486400D01*
X4851400Y3009900D01*
X2984500Y3009900D01*
X2984500Y5486400D01*
X3543300Y939800D02*
G01*
X4279900Y939800D01*
X4279900Y431800D01*
X3543300Y431800D01*
X3543300Y939800D01*
X9646790Y1462912D02*
G01*
X9250809Y1462912D01*
X8420100Y749300D02*
G01*
X8445500Y749300D01*
X7912100Y749300D02*
G01*
X7886700Y749300D01*
X8420100Y749300D02*
G01*
X8420100Y673100D01*
X8420100Y825500D02*
G01*
X8420100Y749300D01*
X7912100Y825500D02*
G01*
X8420100Y825500D01*
X7912100Y749300D02*
G01*
X7912100Y825500D01*
X7912100Y673100D02*
G01*
X7912100Y749300D01*
X8420100Y673100D02*
G01*
X7912100Y673100D01*
G75*
G01*
X9646920Y1462786D02*
G03*
X9250680Y1462786I-198120J149840D01*
G75*
G01
X10233863Y508000D02*
G03X10233863Y508000I-150012J0D01*
G75*
G01
X10058324Y2641600D02*
G03X10058324Y2641600I-357632J0D01*
M02*
