G04 Layer: BottomSolderMaskLayer*
G04 EasyEDA v6.5.54, 2026-10-07 21:45:40*
G04 91ca81187f6f41d693423a00310a333b,a937c8900e4147808b0d97df3b2fa74b,10*
G04 Gerber Generator version 0.2*
G04 Scale: 100 percent, Rotated: No, Reflected: No *
G04 Dimensions in millimeters *
G04 leading zeros omitted , absolute positions ,4 integer and 5 decimal *
%FSLAX45Y45*%
%MOMM*%

%AMMACRO1*4,1,8,-0.9101,-0.9398,-0.9398,-0.9098,-0.9398,0.9101,-0.9101,0.9398,0.9098,0.9398,0.9398,0.9101,0.9398,-0.9098,0.9098,-0.9398,-0.9101,-0.9398,0*%
%AMMACRO2*4,1,8,-0.7831,-0.8128,-0.8128,-0.7828,-0.8128,0.7831,-0.7831,0.8128,0.7828,0.8128,0.8128,0.7831,0.8128,-0.7828,0.7828,-0.8128,-0.7831,-0.8128,0*%
%AMMACRO3*4,1,8,-0.4712,-0.8509,-0.5009,-0.8209,-0.5009,0.8212,-0.4712,0.8509,0.4709,0.8509,0.5009,0.8212,0.5009,-0.8209,0.4709,-0.8509,-0.4712,-0.8509,0*%
%ADD10C,1.2032*%
%ADD11C,1.7016*%
%ADD12MACRO1*%
%ADD13C,1.8796*%
%ADD14C,1.6256*%
%ADD15C,0.0199*%
%ADD16MACRO2*%
%ADD17O,1.001598X1.701597*%
%ADD18MACRO3*%
%ADD19C,1.9812*%
%ADD20C,1.6000*%

%LPD*%
D10*
G01*
X10158856Y508000D03*
G01*
X10008743Y508000D03*
D11*
G01*
X7756093Y2286000D03*
G01*
X8576106Y2286000D03*
D12*
G01*
X8242300Y5194300D03*
D13*
G01*
X8242300Y4940300D03*
G01*
X8242300Y4686300D03*
G01*
X8242300Y4432300D03*
G01*
X8242300Y4178300D03*
G01*
X8242300Y3924300D03*
G01*
X8242300Y3670300D03*
G01*
X8242300Y3416300D03*
D14*
G01*
X2641600Y4902200D03*
G01*
X2641600Y4648200D03*
G01*
X2641600Y4394200D03*
G01*
X2641600Y4140200D03*
G01*
X2641600Y3886200D03*
G01*
X2641600Y3632200D03*
G01*
X2641600Y3378200D03*
G01*
X2641600Y3124200D03*
G01*
X2641600Y2870200D03*
G01*
X2641600Y2616200D03*
G01*
X2641600Y2362200D03*
G01*
X2641600Y2108200D03*
G01*
X2641600Y1854200D03*
G01*
X2641600Y1600200D03*
D16*
G01*
X2641600Y1346200D03*
G01*
X5181600Y1346200D03*
D14*
G01*
X5181600Y1600200D03*
G01*
X5181600Y1854200D03*
G01*
X5181600Y2108200D03*
G01*
X5181600Y2362200D03*
G01*
X5181600Y2616200D03*
G01*
X5181600Y2870200D03*
G01*
X5181600Y3124200D03*
G01*
X5181600Y3378200D03*
G01*
X5181600Y3632200D03*
G01*
X5181600Y3886200D03*
G01*
X5181600Y4140200D03*
G01*
X5181600Y4394200D03*
G01*
X5181600Y4648200D03*
G01*
X5181600Y4902200D03*
D17*
G01*
X9575800Y1612900D03*
G01*
X9448800Y1612900D03*
D18*
G01*
X9321800Y1612900D03*
D19*
G01*
X8547100Y749300D03*
G01*
X7785100Y749300D03*
D20*
G01*
X9825685Y2641600D03*
G01*
X9630714Y2641600D03*
M02*
