G04 Layer: BottomLayer*
G04 EasyEDA v6.5.54, 2026-10-07 21:45:40*
G04 91ca81187f6f41d693423a00310a333b,a937c8900e4147808b0d97df3b2fa74b,10*
G04 Gerber Generator version 0.2*
G04 Scale: 100 percent, Rotated: No, Reflected: No *
G04 Dimensions in millimeters *
G04 leading zeros omitted , absolute positions ,4 integer and 5 decimal *
%FSLAX45Y45*%
%MOMM*%

%ADD10C,0.2540*%
%ADD11C,1.0000*%
%ADD12C,1.6000*%
%ADD13R,1.7780X1.7780*%
%ADD14C,1.7780*%
%ADD15C,1.5240*%
%ADD16C,0.0132*%
%ADD17R,1.5240X1.5240*%
%ADD18O,0.899998X1.599997*%
%ADD19R,0.9000X1.6000*%
%ADD20C,1.8796*%
%ADD21C,1.5000*%

%LPD*%
D10*
X9321802Y1612902D02*
G01*
X9321802Y2590802D01*
X8242302Y3670302D01*
X9630717Y2641602D02*
G01*
X9734450Y2745336D01*
X9877808Y2745336D01*
X10008745Y2614399D01*
X10008745Y508002D01*
X8242302Y5194302D02*
G01*
X8242302Y5077437D01*
X8242302Y5077437D02*
G01*
X8271512Y5077437D01*
X8362088Y4986860D01*
X8362088Y4873576D01*
X8301814Y4813302D01*
X8172985Y4813302D01*
X7756095Y4396412D01*
X7756095Y2286002D01*
X9825687Y2641602D02*
G01*
X9825687Y1862787D01*
X9575802Y1612902D01*
X7785102Y749302D02*
G01*
X7785102Y1028702D01*
X5181602Y3632202D01*
X8547102Y749302D02*
G01*
X8645502Y749302D01*
X9448802Y1552602D01*
X9448802Y1612902D01*
X5181602Y1600202D02*
G01*
X5072001Y1709803D01*
X5072001Y3688488D01*
X5142715Y3759202D01*
X7061202Y3759202D01*
X8242302Y4940302D01*
D11*
G01*
X10158856Y508000D03*
G01*
X10008743Y508000D03*
D12*
G01*
X7756093Y2286000D03*
G01*
X8576106Y2286000D03*
D13*
G01*
X8242300Y5194300D03*
D14*
G01*
X8242300Y4940300D03*
G01*
X8242300Y4686300D03*
G01*
X8242300Y4432300D03*
G01*
X8242300Y4178300D03*
G01*
X8242300Y3924300D03*
G01*
X8242300Y3670300D03*
G01*
X8242300Y3416300D03*
D15*
G01*
X2641600Y4902200D03*
G01*
X2641600Y4648200D03*
G01*
X2641600Y4394200D03*
G01*
X2641600Y4140200D03*
G01*
X2641600Y3886200D03*
G01*
X2641600Y3632200D03*
G01*
X2641600Y3378200D03*
G01*
X2641600Y3124200D03*
G01*
X2641600Y2870200D03*
G01*
X2641600Y2616200D03*
G01*
X2641600Y2362200D03*
G01*
X2641600Y2108200D03*
G01*
X2641600Y1854200D03*
G01*
X2641600Y1600200D03*
D17*
G01*
X2641600Y1346200D03*
G01*
X5181600Y1346200D03*
D15*
G01*
X5181600Y1600200D03*
G01*
X5181600Y1854200D03*
G01*
X5181600Y2108200D03*
G01*
X5181600Y2362200D03*
G01*
X5181600Y2616200D03*
G01*
X5181600Y2870200D03*
G01*
X5181600Y3124200D03*
G01*
X5181600Y3378200D03*
G01*
X5181600Y3632200D03*
G01*
X5181600Y3886200D03*
G01*
X5181600Y4140200D03*
G01*
X5181600Y4394200D03*
G01*
X5181600Y4648200D03*
G01*
X5181600Y4902200D03*
D18*
G01*
X9575800Y1612900D03*
G01*
X9448800Y1612900D03*
D19*
G01*
X9321800Y1612900D03*
D20*
G01*
X8547100Y749300D03*
G01*
X7785100Y749300D03*
D21*
G01*
X9825685Y2641600D03*
G01*
X9630714Y2641600D03*
M02*
